<?xml version="1.0" encoding="UTF-8"?>
<svg width="1440px" height="850px" viewBox="0 0 1440 850" version="1.1" xmlns="http://www.w3.org/2000/svg" xmlns:xlink="http://www.w3.org/1999/xlink">
    <!-- Generator: Sketch 63.1 (92452) - https://sketch.com -->
    <title>bg</title>
    <desc>Created with Sketch.</desc>
    <defs>
        <linearGradient x1="50%" y1="0%" x2="50%" y2="100%" id="linearGradient-1">
            <stop stop-color="#FFFFFF" offset="0%"></stop>
            <stop stop-color="#E3F2FD" offset="100%"></stop>
        </linearGradient>
        <rect id="path-2" x="0" y="0" width="1440" height="850"></rect>
    </defs>
    <g id="bg" stroke="none" stroke-width="1" fill="none" fill-rule="evenodd">
        <rect fill="#FFFFFF" x="0" y="0" width="1440" height="850"></rect>
        <g id="fond-onboarding">
            <rect id="Rectangle" fill="#FFFFFF" fill-rule="nonzero" x="0" y="0" width="1440" height="850"></rect>
            <mask id="mask-3" fill="white">
                <use xlink:href="#path-2"></use>
            </mask>
            <use id="Rectangle-Copy-3" fill="url(#linearGradient-1)" xlink:href="#path-2"></use>
            <path d="M1648.58222,422.075745 C1686.62426,476.673053 1657.6124,588.75133 1654.34617,680.06725 C1650.8878,771.575414 1673.36719,841.936733 1658.38093,912.490297 C1643.39467,983.04386 1591.1349,1053.78967 1512.93738,1104.73434 C1434.54773,1155.67901 1330.41246,1187.01479 1228.1985,1168.7516 C1125.79241,1150.68066 1025.6919,1083.01076 1014.16401,996.308699 C1002.63612,909.79888 1080.06511,804.256901 1099.47039,687.372523 C1118.68354,570.488146 1080.06511,442.453614 1120.41273,388.433038 C1160.76034,334.220218 1280.26614,354.213599 1392.66306,362.672336 C1505.05999,370.93883 1610.34805,367.670682 1648.58222,422.075745 Z" id="Path" fill-opacity="0.05" fill="#039BE5" fill-rule="nonzero" mask="url(#mask-3)"></path>
            <path d="M372.413177,-48.5996674 C430.678428,-23.0469268 477.987821,39.0097291 478.983808,100.900458 C479.979795,162.957114 434.828375,224.681916 398.64084,296.030478 C362.619303,367.379039 335.727648,448.35136 282.60833,475.56337 C229.489012,502.775379 150.142032,476.227077 67.6410912,450.010629 C-15.025847,423.794181 -101.012743,397.743659 -149.48412,338.341834 C-197.955497,278.940008 -209.077355,186.020951 -193.307557,97.9137741 C-177.703758,9.9725238 -135.042306,-73.1568467 -69.1411519,-97.5480992 C-3.23999837,-121.773425 86.0668546,-87.4265591 165.413835,-75.4798232 C244.760816,-63.6990142 314.147925,-74.318335 372.413177,-48.5996674 Z" id="Path" fill-opacity="0.05" fill="#039BE5" fill-rule="nonzero" mask="url(#mask-3)"></path>
        </g>
    </g>
</svg>